HIERARCHY
ROOT Hips
{
 OFFSET 0.000000 0.000000 0.000000
 CHANNELS 6 Xposition Yposition Zposition Yrotation Xrotation Zrotation
 JOINT Chest
 {
  OFFSET 0.000000 9.585900 0.002600
  CHANNELS 3 Yrotation Xrotation Zrotation
  JOINT Chest2
  {
   OFFSET 0.000000 9.601200 -0.005300
   CHANNELS 3 Yrotation Xrotation Zrotation
   JOINT Chest3
   {
    OFFSET 0.000000 9.561800 0.000000
    CHANNELS 3 Yrotation Xrotation Zrotation
    JOINT Chest4
    {
     OFFSET 0.000000 9.552100 0.000000
     CHANNELS 3 Yrotation Xrotation Zrotation
     JOINT Neck
     {
      OFFSET 0.000000 14.453000 0.000000
      CHANNELS 3 Yrotation Xrotation Zrotation
      JOINT Head
      {
       OFFSET 0.000000 8.936500 -0.011300
       CHANNELS 3 Yrotation Xrotation Zrotation
       End Site
       {
        OFFSET 0.000000 17.073600 -0.006000
       }
      }
     }
     JOINT RightCollar
     {
      OFFSET -2.921100 9.558500 0.000000
      CHANNELS 3 Yrotation Xrotation Zrotation
      JOINT RightShoulder
      {
       OFFSET -13.519700 0.000000 0.000000
       CHANNELS 3 Yrotation Xrotation Zrotation
       JOINT RightElbow
       {
        OFFSET 0.000000 -29.696600 0.000000
        CHANNELS 3 Yrotation Xrotation Zrotation
        JOINT RightWrist
        {
         OFFSET 0.000000 -24.004700 0.000000
         CHANNELS 3 Yrotation Xrotation Zrotation
         End Site
         {
          OFFSET 0.000000 -17.728500 0.000000
         }
        }
       }
      }
     }
     JOINT LeftCollar
     {
      OFFSET 2.921100 9.558500 0.000000
      CHANNELS 3 Yrotation Xrotation Zrotation
      JOINT LeftShoulder
      {
       OFFSET 13.519700 0.000000 0.000000
       CHANNELS 3 Yrotation Xrotation Zrotation
       JOINT LeftElbow
       {
        OFFSET 0.000000 -29.696600 0.000000
        CHANNELS 3 Yrotation Xrotation Zrotation
        JOINT LeftWrist
        {
         OFFSET 0.000000 -24.004700 0.000000
         CHANNELS 3 Yrotation Xrotation Zrotation
         End Site
         {
          OFFSET 0.000000 -17.728500 0.000000
         }
        }
       }
      }
     }
    }
   }
  }
 }
 JOINT RightHip
 {
  OFFSET -7.771700 -0.012900 -0.001300
  CHANNELS 3 Yrotation Xrotation Zrotation
  JOINT RightKnee
  {
   OFFSET 0.000000 -40.869800 0.001200
   CHANNELS 3 Yrotation Xrotation Zrotation
   JOINT RightAnkle
   {
    OFFSET 0.000000 -39.717900 0.002100
    CHANNELS 3 Yrotation Xrotation Zrotation
    JOINT RightToe
    {
     OFFSET 0.000000 -4.965400 11.033500
     CHANNELS 3 Yrotation Xrotation Zrotation
     End Site
     {
      OFFSET 0.000000 -1.423100 5.872300
     }
    }
   }
  }
 }
 JOINT LeftHip
 {
  OFFSET 7.771700 -0.012900 -0.001300
  CHANNELS 3 Yrotation Xrotation Zrotation
  JOINT LeftKnee
  {
   OFFSET 0.000000 -40.869800 0.001200
   CHANNELS 3 Yrotation Xrotation Zrotation
   JOINT LeftAnkle
   {
    OFFSET 0.000000 -39.717900 0.002100
    CHANNELS 3 Yrotation Xrotation Zrotation
    JOINT LeftToe
    {
     OFFSET 0.000000 -4.965400 11.033500
     CHANNELS 3 Yrotation Xrotation Zrotation
     End Site
     {
      OFFSET 0.000000 -1.423100 5.872300
     }
    }
   }
  }
 }
}
MOTION
Frames: 12
Frame Time: 0.008333
0.000000 85.388000 0.000000 0.000000 -5.767877 0.000000 0.000000 11.653817 0.000000 0.000000 -5.885947 0.000000 0.000000 -0.000000 0.000000 0.000000 -0.000000 0.000000 0.000000 12.528835 0.000000 0.000000 0.711642 0.000000 0.000000 -0.000000 0.000000 0.000000 0.000000 -90.000000 0.000000 -2.309062 0.000000 0.000000 2.309062 0.000000 0.000000 -0.000000 0.000000 0.000000 -0.000000 90.000000 0.000000 -2.309062 0.000000 0.000000 2.309062 0.000000 0.000000 8.520406 0.000000 0.000000 1.905762 0.000000 -0.000000 -4.658285 0.000000 0.000000 -0.000000 0.000000 0.000000 8.520406 0.000000 0.000000 1.905762 0.000000 -0.000000 -4.658285 0.000000 0.000000 -0.000000 0.000000
-144.854214 51.658193 -60.055305 177.085717 -19.972932 0.086448 -2.150071 12.213241 0.840460 -0.165365 0.918155 0.117867 -0.263736 1.572255 0.193838 -1.908973 11.112527 1.267436 -0.991655 16.380027 -1.938697 -0.608733 -8.513610 -1.803021 4.579406 16.438512 11.632977 30.409424 -4.795392 -28.523121 62.646912 -73.395064 -97.257369 -1.598987 -0.957557 8.969988 -2.500942 15.317417 -14.749077 -32.793376 2.493316 29.394515 -49.474168 -74.201876 87.935563 11.194100 9.521307 -18.738179 -13.693038 -62.724371 6.524764 -65.034616 82.341551 -73.238181 -1.866929 -4.917273 6.124584 0.193273 -0.837339 0.116586 12.472001 -60.767351 -8.941524 30.602536 86.529726 36.313685 -3.909812 -12.679622 1.501197 0.069939 0.110819 0.034497
-144.855332 51.657919 -60.055353 177.088857 -19.958759 0.078893 -2.134644 12.204562 0.846097 -0.164953 0.918135 0.117690 -0.262917 1.571156 0.193496 -1.886089 11.114990 1.261710 -1.017840 16.393144 -1.926874 -0.625400 -8.526331 -1.788081 4.569105 16.430116 11.648079 30.397953 -4.806167 -28.523728 62.419842 -73.470124 -97.033076 -1.589422 -0.966744 8.950678 -2.513187 15.317779 -14.754333 -32.829531 2.488966 29.388109 -49.518768 -74.234083 87.986823 11.177497 9.504595 -18.707111 -13.670976 -62.731674 6.520594 -65.002587 82.327195 -73.204268 -1.868676 -4.908227 6.136227 0.191123 -0.824574 0.111374 12.466460 -60.784085 -8.934412 30.596776 86.530899 36.306731 -3.915730 -12.680600 1.504170 0.071087 0.112244 0.032857
-144.857140 51.657795 -60.055922 177.102486 -19.945177 0.070598 -2.114869 12.201428 0.846088 -0.179549 0.912030 0.123365 -0.261319 1.570494 0.193006 -1.876291 11.112925 1.261981 -1.032916 16.401795 -1.920394 -0.646112 -8.518210 -1.776339 4.566061 16.426467 11.653155 30.399168 -4.812385 -28.526157 62.239890 -73.528969 -96.868302 -1.581708 -0.972363 8.936357 -2.527356 15.317498 -14.752969 -32.870499 2.449829 29.340545 -49.553498 -74.234775 88.021900 11.199543 9.433998 -18.635174 -13.685706 -62.742351 6.529857 -65.007623 82.320662 -73.213449 -1.860102 -4.894931 6.132051 0.184674 -0.829927 0.118608 12.460251 -60.800009 -8.936871 30.567611 86.533574 36.276637 -3.914406 -12.678958 1.506001 0.069132 0.112387 0.034127
-144.858984 51.658258 -60.058262 177.105118 -19.940957 0.066305 -2.100348 12.201715 0.847992 -0.167168 0.915807 0.118582 -0.276236 1.564760 0.198850 -1.854158 11.111788 1.258930 -1.052637 16.411170 -1.911498 -0.670133 -8.487669 -1.764852 4.554435 16.428632 11.656035 30.405580 -4.821422 -28.520863 62.140980 -73.554979 -96.791526 -1.572516 -0.980192 8.931637 -2.553868 15.316372 -14.741300 -32.892083 2.427028 29.323420 -49.596127 -74.290882 88.058016 11.159083 9.412024 -18.585243 -13.684766 -62.743824 6.532572 -65.022219 82.312460 -73.230542 -1.853199 -4.884908 6.128548 0.181970 -0.832647 0.124206 12.465763 -60.804762 -8.937662 30.520623 86.537928 36.230301 -3.915113 -12.679630 1.509503 0.069168 0.111280 0.035465
-144.860055 51.658650 -60.060587 177.106907 -19.935739 0.058126 -2.083121 12.200510 0.855596 -0.180105 0.912812 0.121200 -0.260970 1.566082 0.195458 -1.844474 11.109122 1.258082 -1.070950 16.416964 -1.902795 -0.677648 -8.481702 -1.760397 4.558504 16.439597 11.652160 30.409794 -4.827264 -28.516639 62.054774 -73.585990 -96.742730 -1.600090 -0.961647 8.911251 -2.562084 15.318194 -14.740357 -32.916641 2.424484 29.325820 -49.686122 -74.374460 88.135729 11.156280 9.325428 -18.494998 -13.682259 -62.743193 6.534047 -65.017573 82.306145 -73.220882 -1.849196 -4.884704 6.125032 0.178977 -0.818157 0.121642 12.463704 -60.811514 -8.931764 30.508574 86.541939 36.221313 -3.912483 -12.682626 1.508981 0.068707 0.111943 0.036432
-144.861971 51.659079 -60.063319 177.116331 -19.932316 0.053742 -2.075078 12.201015 0.858027 -0.176786 0.911444 0.119000 -0.261031 1.565509 0.196321 -1.835151 11.106302 1.258281 -1.088331 16.423117 -1.895920 -0.684655 -8.475202 -1.756483 4.544074 16.441741 11.657781 30.411859 -4.820378 -28.514163 61.987037 -73.633407 -96.686190 -1.601758 -0.961732 8.894076 -2.576185 15.315660 -14.741493 -32.934747 2.422876 29.327126 -49.803447 -74.466384 88.232294 11.157681 9.218842 -18.382462 -13.670440 -62.743729 6.513506 -65.025952 82.310796 -73.220656 -1.849793 -4.892717 6.123662 0.170835 -0.801733 0.115895 12.467911 -60.815490 -8.937236 30.516089 86.545433 36.227335 -3.912889 -12.682316 1.514062 0.069236 0.111090 0.035128
-144.865084 51.659278 -60.065857 177.129101 -19.927209 0.057046 -2.073436 12.199377 0.851323 -0.167274 0.912984 0.118370 -0.280828 1.560600 0.198873 -1.810520 11.105725 1.257299 -1.101639 16.434750 -1.894606 -0.694819 -8.461402 -1.749320 4.536517 16.447979 11.653861 30.406064 -4.822489 -28.503725 61.889138 -73.688135 -96.613240 -1.586416 -0.978121 8.875875 -2.591114 15.316130 -14.746083 -32.963046 2.409206 29.330140 -49.907868 -74.553823 88.313055 11.141961 9.124919 -18.266957 -13.643434 -62.750286 6.476532 -65.070312 82.319887 -73.257723 -1.861947 -4.911164 6.122725 0.171543 -0.780450 0.113926 12.478716 -60.818764 -8.956220 30.532407 86.543437 36.240974 -3.922398 -12.680504 1.514670 0.068313 0.110085 0.038888
-144.865761 51.659167 -60.067819 177.129972 -19.919356 0.051669 -2.059672 12.195715 0.855957 -0.172363 0.910464 0.121389 -0.271049 1.561227 0.198006 -1.800129 11.104965 1.257829 -1.108300 16.445468 -1.892760 -0.705643 -8.448733 -1.746213 4.544577 16.473129 11.650223 30.393526 -4.844373 -28.501451 61.869888 -73.700261 -96.613073 -1.597956 -0.970793 8.851198 -2.597670 15.321741 -14.752723 -33.002484 2.398870 29.339387 -50.026546 -74.642657 88.415382 11.126820 9.016294 -18.157776 -13.634869 -62.755070 6.475732 -65.098472 82.320086 -73.279775 -1.874224 -4.926277 6.125931 0.176252 -0.762311 0.107849 12.479123 -60.828552 -8.952177 30.519208 86.548408 36.229342 -3.924750 -12.682154 1.514212 0.067407 0.109939 0.038993
-144.865151 51.658957 -60.069922 177.132453 -19.913035 0.040042 -2.048108 12.194470 0.866695 -0.168206 0.908799 0.120089 -0.269259 1.560550 0.198495 -1.793462 11.105809 1.259175 -1.093554 16.467618 -1.897322 -0.730568 -8.450331 -1.731723 4.538320 16.480525 11.653550 30.394009 -4.846314 -28.500447 61.870356 -73.699055 -96.626910 -1.599916 -0.957395 8.812646 -2.599385 15.328321 -14.756157 -33.059930 2.377316 29.344253 -50.114802 -74.712996 88.497662 11.115332 8.895271 -18.064506 -13.629201 -62.759110 6.485313 -65.161420 82.314535 -73.334854 -1.891849 -4.934317 6.129473 0.188984 -0.754194 0.106318 12.468662 -60.839617 -8.933827 30.427041 86.558105 36.136331 -3.920837 -12.684409 1.518550 0.065127 0.109983 0.037273
-144.866630 51.658635 -60.072191 177.137584 -19.907342 0.041774 -2.040212 12.193540 0.865390 -0.171238 0.909017 0.116254 -0.267553 1.559969 0.198331 -1.785006 11.105888 1.260996 -1.093571 16.476084 -1.895373 -0.734711 -8.439522 -1.730634 4.531817 16.485566 11.657137 30.390771 -4.855093 -28.500771 61.879465 -73.690756 -96.639393 -1.596093 -0.958082 8.800837 -2.602941 15.327719 -14.762639 -33.086230 2.379726 29.356717 -50.183777 -74.753441 88.562083 11.150209 8.740081 -17.999749 -13.623749 -62.764916 6.478943 -65.189749 82.323052 -73.370628 -1.893842 -4.951966 6.146858 0.187138 -0.746065 0.093353 12.483576 -60.853156 -8.956306 30.545546 86.566127 36.252591 -3.901097 -12.658379 1.528297 0.046167 0.082527 0.029466
-144.868885 51.657830 -60.073418 177.156477 -19.895091 0.044568 -2.043326 12.186418 0.858712 -0.174551 0.907642 0.118925 -0.266840 1.559922 0.197880 -1.780944 11.107517 1.256465 -1.095310 16.479730 -1.891395 -0.732795 -8.427178 -1.730720 4.520449 16.484235 11.663051 30.392756 -4.844982 -28.501876 61.910873 -73.692634 -96.683267 -1.578279 -0.969490 8.796524 -2.608788 15.328692 -14.769294 -33.099897 2.383388 29.373062 -50.289388 -74.797925 88.657601 11.178969 8.584140 -17.949479 -13.624533 -62.779373 6.463399 -65.220472 82.332278 -73.407766 -1.899004 -4.968271 6.162494 0.181653 -0.736732 0.085886 12.496323 -60.864099 -8.986418 30.561094 86.564414 36.269002 -3.907619 -12.654975 1.535068 0.046927 0.082623 0.025117
